<svg width="17" height="17" viewBox="0 0 17 17" fill="none" xmlns="http://www.w3.org/2000/svg">
<g clip-path="url(#clip0_1_106)">
<path d="M11.4337 5.88196C12.5159 5.88196 13.5539 6.31189 14.3192 7.07718C15.0845 7.84246 15.5144 8.88041 15.5144 9.96269V14.7235H12.7939V9.96269C12.7939 9.60193 12.6506 9.25595 12.3955 9.00085C12.1404 8.74576 11.7944 8.60245 11.4337 8.60245C11.0729 8.60245 10.7269 8.74576 10.4718 9.00085C10.2167 9.25595 10.0734 9.60193 10.0734 9.96269V14.7235H7.35294V9.96269C7.35294 8.88041 7.78287 7.84246 8.54815 7.07718C9.31344 6.31189 10.3514 5.88196 11.4337 5.88196V5.88196Z" stroke="#0658A6" stroke-width="1.36024" stroke-linecap="round" stroke-linejoin="round"/>
<path d="M4.63241 6.56201H1.91193V14.7235H4.63241V6.56201Z" stroke="#0658A6" stroke-width="1.36024" stroke-linecap="round" stroke-linejoin="round"/>
<path d="M3.27217 4.52164C4.02341 4.52164 4.63241 3.91263 4.63241 3.16139C4.63241 2.41015 4.02341 1.80115 3.27217 1.80115C2.52093 1.80115 1.91193 2.41015 1.91193 3.16139C1.91193 3.91263 2.52093 4.52164 3.27217 4.52164Z" stroke="#0658A6" stroke-width="1.36024" stroke-linecap="round" stroke-linejoin="round"/>
</g>
<defs>
<clipPath id="clip0_1_106">
<rect width="16.3229" height="16.3229" fill="white" transform="translate(0.551422 0.440918)"/>
</clipPath>
</defs>
</svg>
